# File created by Blade
# Date/Time:  Tue Jan 27 20:02:37 2015
# Frame Rate: 120.000 fps
#------------------------------------------------------
:FULLY-SPECIFIED
:DEGREES
3166
root 7.355211 33.630524 4.196626 20.313370 -32.978130 -30.646096
Spine 8.587906 26.301753 5.143368
Head 0.807923 0.246635 11.742235
LeftShoulder -13.883305 1.002724 31.238811
LeftArm -5.445533 -14.789475 -78.413484
LeftForeArm -46.141854 -0.000000 131.532750
LeftHand 8.571665 -0.000000 -42.968213
LeftHandThumb1 -26.253704 0.000000 33.147579
RightShoulder -9.941537 -4.290571 -21.121158
RightArm 34.156855 -55.345749 76.386385
RightForeArm -15.802047 -0.000000 18.498146
RightHand 16.065157 -0.000000 10.564904
RightHandThumb1 -24.326973 -0.000000 -32.862282
LeftUpLeg 4.970166 24.193390 14.155141
LeftLeg -6.309072 -0.000000 0.000000
LeftFoot -23.713358 27.733734 -20.390470
LeftToeBase 19.513434 -0.000000 -0.000000
RightUpLeg 11.744485 -77.975745 -41.951356
RightLeg 95.584892 -0.000000 -0.000000
RightFoot 33.736745 -22.276687 33.300989
RightToeBase 15.880928 -0.000000 -0.000000
3167
root 7.353417 33.624024 4.198213 20.254894 -33.095487 -30.642332
Spine 8.664904 26.383422 5.116189
Head 0.852597 0.216928 11.738542
LeftShoulder -13.850737 0.952461 31.263419
LeftArm -5.458922 -14.792693 -78.533540
LeftForeArm -45.983927 -0.000000 131.613553
LeftHand 8.487153 0.000000 -42.937818
LeftHandThumb1 -26.253704 0.000000 33.147579
RightShoulder -9.931971 -4.316588 -21.122832
RightArm 34.097323 -55.341515 76.440773
RightForeArm -15.830061 -0.000000 18.414220
RightHand 16.085656 -0.000000 10.549719
RightHandThumb1 -24.326973 -0.000000 -32.862282
LeftUpLeg 5.067709 24.125874 14.142875
LeftLeg -6.284130 -0.000000 0.000000
LeftFoot -23.657522 27.897421 -20.244069
LeftToeBase 19.123025 -0.000000 -0.000000
RightUpLeg 12.318353 -78.804160 -42.527196
RightLeg 95.291008 -0.000000 -0.000000
RightFoot 33.677632 -22.224090 33.707202
RightToeBase 16.647326 -0.000000 -0.000000
3168
root 7.351032 33.618269 4.200007 20.205408 -33.230227 -30.651777
Spine 8.740974 26.475304 5.094525
Head 0.891250 0.206309 11.737376
LeftShoulder -13.818126 0.940720 31.297632
LeftArm -5.471183 -14.853550 -78.673231
LeftForeArm -45.847093 -0.000000 131.680106
LeftHand 8.378124 -0.000000 -42.928865
LeftHandThumb1 -26.253704 0.000000 33.147579
RightShoulder -9.915146 -4.306179 -21.124490
RightArm 34.043414 -55.399790 76.464021
RightForeArm -15.945297 -0.000000 18.333030
RightHand 16.027375 -0.000000 11.084775
RightHandThumb1 -24.326973 -0.000000 -32.862282
LeftUpLeg 5.168872 24.100554 14.133675
LeftLeg -6.266635 -0.000000 0.000000
LeftFoot -23.662436 28.105903 -20.145110
LeftToeBase 18.928177 -0.000000 -0.000000
RightUpLeg 12.602398 -79.545401 -42.834320
RightLeg 95.041308 -0.000000 -0.000000
RightFoot 33.653037 -22.168815 34.049750
RightToeBase 15.550980 -0.000000 -0.000000
3169
root 7.350173 33.613736 4.201405 20.172470 -33.409181 -30.669058
Spine 8.815850 26.593385 5.059070
Head 0.910621 0.228405 11.722551
LeftShoulder -13.797057 0.905163 31.338895
LeftArm -5.533931 -14.932783 -78.761757
LeftForeArm -45.753952 -0.000000 131.719645
LeftHand 8.380115 0.000000 -42.871094
LeftHandThumb1 -26.253704 0.000000 33.147579
RightShoulder -9.903634 -4.268240 -21.114743
RightArm 34.021981 -55.453275 76.466540
RightForeArm -15.869953 -0.000000 18.177294
RightHand 16.162915 -0.000000 10.914411
RightHandThumb1 -24.326973 -0.000000 -32.862282
LeftUpLeg 5.259782 24.190613 14.113366
LeftLeg -6.229546 -0.000000 0.000000
LeftFoot -23.605598 28.299009 -19.957157
LeftToeBase 18.737032 -0.000000 -0.000000
RightUpLeg 12.383595 -80.198629 -42.635193
RightLeg 94.776032 -0.000000 -0.000000
RightFoot 33.630983 -22.175342 34.221099
RightToeBase 16.967943 -0.000000 -0.000000
3170
root 7.347022 33.609864 4.201409 20.161267 -33.598260 -30.720836
Spine 8.891615 26.722767 5.045978
Head 0.901565 0.288481 11.711949
LeftShoulder -13.775564 0.927523 31.384676
LeftArm -5.569584 -15.028475 -78.818439
LeftForeArm -45.743996 -0.000000 131.741601
LeftHand 8.344460 -0.000000 -42.863934
LeftHandThumb1 -26.253704 0.000000 33.147579
RightShoulder -9.887158 -4.219823 -21.109539
RightArm 33.982501 -55.523582 76.482730
RightForeArm -16.026143 -0.000000 18.087335
RightHand 16.101639 -0.000000 10.733474
RightHandThumb1 -24.326973 -0.000000 -32.862282
LeftUpLeg 5.379979 24.256949 14.123713
LeftLeg -6.245689 -0.000000 0.000000
LeftFoot -23.641408 28.613443 -19.862497
LeftToeBase 18.656727 -0.000000 -0.000000
RightUpLeg 11.696236 -80.776305 -41.942776
RightLeg 94.534174 -0.000000 -0.000000
RightFoot 33.741279 -22.084269 33.906405
RightToeBase 15.969083 -0.000000 -0.000000
3171
root 7.344165 33.606563 4.199836 20.169656 -33.810521 -30.783388
Spine 8.961842 26.871124 5.030058
Head 0.861947 0.370374 11.688935
LeftShoulder -13.758146 0.959594 31.425174
LeftArm -5.611742 -15.132983 -78.807268
LeftForeArm -45.741966 -0.000000 131.741247
LeftHand 8.383021 -0.000000 -42.833420
LeftHandThumb1 -26.253704 0.000000 33.147579
RightShoulder -9.894862 -4.229908 -21.082849
RightArm 34.090177 -55.599017 76.359938
RightForeArm -16.161493 -0.000000 18.023213
RightHand 15.976478 -0.000000 10.836583
RightHandThumb1 -24.326973 -0.000000 -32.862282
LeftUpLeg 5.483835 24.452762 14.137505
LeftLeg -6.235696 -0.000000 0.000000
LeftFoot -23.617170 28.616213 -19.849614
LeftToeBase 18.355064 -0.000000 -0.000000
RightUpLeg 10.409815 -81.250342 -40.643731
RightLeg 94.291072 -0.000000 -0.000000
RightFoot 33.627120 -22.169511 34.228821
RightToeBase 15.401428 -0.000000 -0.000000
3172
root 7.341986 33.602892 4.198041 20.173177 -34.047424 -30.842285
Spine 9.049851 27.018785 5.007757
Head 0.793220 0.463075 11.658483
LeftShoulder -13.761337 0.999167 31.463885
LeftArm -5.657662 -15.236598 -78.736790
LeftForeArm -45.773044 0.000000 131.722253
LeftHand 8.396120 0.000000 -42.791737
LeftHandThumb1 -26.253704 0.000000 33.147579
RightShoulder -9.890926 -4.235788 -21.064694
RightArm 34.176975 -55.632058 76.277202
RightForeArm -16.290045 -0.000000 17.938665
RightHand 15.994463 -0.000000 11.143180
RightHandThumb1 -24.326973 -0.000000 -32.862282
LeftUpLeg 5.609885 24.717241 14.143340
LeftLeg -6.242764 -0.000000 0.000000
LeftFoot -23.572471 28.740489 -19.657950
LeftToeBase 18.476998 -0.000000 -0.000000
RightUpLeg 8.562365 -81.605072 -38.796350
RightLeg 94.067794 -0.000000 -0.000000
RightFoot 33.572849 -22.233486 34.296970
RightToeBase 15.205372 -0.000000 -0.000000
3173
root 7.340387 33.599370 4.194249 20.186413 -34.256839 -30.918796
Spine 9.156561 27.125640 5.023008
Head 0.680352 0.572175 11.603487
LeftShoulder -13.793663 1.053156 31.483853
LeftArm -5.679731 -15.327186 -78.618844
LeftForeArm -45.882944 0.000000 131.674882
LeftHand 8.433682 -0.000000 -42.728542
LeftHandThumb1 -26.253704 0.000000 33.147579
RightShoulder -9.885109 -4.185617 -21.065504
RightArm 34.174907 -55.666988 76.274403
RightForeArm -16.482528 -0.000000 17.858240
RightHand 16.127229 0.000000 11.483848
RightHandThumb1 -24.326973 -0.000000 -32.862282
LeftUpLeg 5.719040 24.940321 14.169845
LeftLeg -6.241649 -0.000000 0.000000
LeftFoot -23.539166 28.827485 -19.521761
LeftToeBase 18.334228 -0.000000 -0.000000
RightUpLeg 6.456505 -81.889466 -36.663905
RightLeg 93.846939 -0.000000 -0.000000
RightFoot 33.498227 -22.262511 34.469960
RightToeBase 15.600723 -0.000000 -0.000000
3174
root 7.336783 33.595512 4.190996 20.184785 -34.504351 -30.997398
Spine 9.286923 27.276131 5.031362
Head 0.557500 0.690979 11.561997
LeftShoulder -13.818829 1.088118 31.503934
LeftArm -5.702018 -15.395190 -78.430028
LeftForeArm -46.090934 -0.000000 131.594932
LeftHand 8.518704 -0.000000 -42.640153
LeftHandThumb1 -26.253704 0.000000 33.147579
RightShoulder -9.907401 -4.134590 -21.057442
RightArm 34.154170 -55.673479 76.316618
RightForeArm -16.461977 -0.000000 17.757606
RightHand 16.088078 0.000000 10.973901
RightHandThumb1 -24.326973 -0.000000 -32.862282
LeftUpLeg 5.879482 25.224347 14.207442
LeftLeg -6.266281 -0.000000 0.000000
LeftFoot -23.505930 28.860865 -19.427603
LeftToeBase 18.296457 -0.000000 -0.000000
RightUpLeg 4.057391 -82.033648 -34.242133
RightLeg 93.664511 -0.000000 -0.000000
RightFoot 33.304023 -22.284407 34.831618
RightToeBase 15.877022 -0.000000 -0.000000
3175
root 7.331971 33.591577 4.188912 20.176517 -34.720650 -31.070342
Spine 9.403838 27.367838 5.045222
Head 0.472675 0.800680 11.530744
LeftShoulder -13.855638 1.104083 31.514561
LeftArm -5.751693 -15.440269 -78.186400
LeftForeArm -46.265934 -0.000000 131.518644
LeftHand 8.528258 -0.000000 -42.833774
LeftHandThumb1 -26.253704 0.000000 33.147579
RightShoulder -9.884187 -4.089935 -21.054402
RightArm 34.143049 -55.667968 76.338448
RightForeArm -16.428646 0.000000 17.680647
RightHand 15.922157 -0.000000 10.834018
RightHandThumb1 -24.326973 -0.000000 -32.862282
LeftUpLeg 6.041348 25.446911 14.250455
LeftLeg -6.300158 -0.000000 0.000000
LeftFoot -23.435672 28.940238 -19.255379
LeftToeBase 18.222787 -0.000000 -0.000000
RightUpLeg 1.762002 -82.141362 -31.907491
RightLeg 93.465883 -0.000000 -0.000000
RightFoot 33.290430 -22.239338 34.925839
RightToeBase 15.433280 -0.000000 -0.000000
